<svg xmlns="http://www.w3.org/2000/svg" viewBox="0 0 1110.84 44.85"><defs><style>.cls-1,.cls-2,.cls-3{fill:none;stroke:#f4954e;}.cls-1,.cls-3{stroke-miterlimit:10;}.cls-1,.cls-2{stroke-width:2.95px;}.cls-2{stroke-linejoin:round;}.cls-3{stroke-width:1.48px;}</style></defs><g id="Layer_2" data-name="Layer 2"><g id="Layer_11" data-name="Layer 11"><path class="cls-1" d="M539.18,35.16V23.57a22.09,22.09,0,0,1,22.1-22.09h0a22.1,22.1,0,0,1,22.1,22.09V35.16"/><path class="cls-2" d="M612.75,35.05a26.46,26.46,0,0,0-25.53-19.52,26.47,26.47,0,0,0-25.54,19.52,66.53,66.53,0,0,0-.91,8.32,67.05,67.05,0,0,0-.92-8.32,26.5,26.5,0,0,0-19.41-18.81,26.83,26.83,0,0,0-6.12-.71,26.45,26.45,0,0,0-25.53,19.52"/><line class="cls-3" x1="581.65" y1="34.7" x2="1110.84" y2="34.7"/><line class="cls-3" y1="34.7" x2="540.93" y2="34.7"/></g></g></svg>