<svg xmlns="http://www.w3.org/2000/svg" viewBox="0 0 288.65 23.3"><defs><style>.cls-1{fill:#f4954e;}</style></defs><g id="Layer_2" data-name="Layer 2"><g id="Layer_11" data-name="Layer 11"><path class="cls-1" d="M272.1.12c-.47,0-4,0-4,0S151-.14,149,.14c-6.94,1-8.64,4.46-9,7-.38-2.58-2.07-6.17-9.07-7,0,0-28.76-.21-40.39-.1,0,0-73.62.06-73.95,0C6.94-.34,0,3,0,9.06s3.63,6.7,5,6.7,4.59-.4,4.51-4.08A3.05,3.05,0,0,0,6.31,8.36c-.7,0-3.07-.09-3.07,2.54s3.15,2.19,3.15,2.19C5.08,15.54,1.8,12.54,1.84,9.5s3.06-8,14.89-7.36c.62,0,4.78-.07,4.86-.07l107.69.18s9.7-.83,9.85,7.25c.1,5.27-4.29,6.07-5.89,5.84s-4.46-1.41-3.93-5.15a3.35,3.35,0,0,1,4.18-3.13c.37.13,2.78.71,2.43,3.15s-2.85,1.45-2.85,1.45a1.93,1.93,0,0,1-.94-2.7s-2.1,3.82,1.63,4.36c2.44.35,3.32-1.47,3.55-3.07s-.17-4.22-4-4.77-5.4,2.41-5.72,4.62.33,5.88,5.51,6.63a4.42,4.42,0,0,0,4.28-1.34c-.6,1.08-1.46,3.91,2.59,7.91,4-4,3.16-6.85,2.55-7.93a4.42,4.42,0,0,0,4.29,1.32c5.18-.76,5.81-4.43,5.48-6.64s-1.93-5.16-5.73-4.6-4.2,3.19-4,4.78,1.13,3.42,3.57,3.06c3.73-.55,1.61-4.36,1.61-4.36a1.93,1.93,0,0,1-.92,2.7s-2.5,1-2.86-1.45,2-3,2.41-3.15a3.34,3.34,0,0,1,4.19,3.11c.56,3.73-2.3,4.93-3.9,5.17s-6-.55-5.92-5.82c.12-8.08,9.82-7.28,9.82-7.28.42,0,120,0,121.31-.07,11.82-.61,14.85,4.29,14.89,7.36s-3.24,6-4.56,3.59c0,0,3.16.43,3.16-2.19S283,8.36,282.34,8.36a3.05,3.05,0,0,0-3.24,3.32c-.09,3.68,3.11,4.08,4.51,4.08s5-.66,5-6.7S281.71-.34,272.1.12ZM141.9,17A14.9,14.9,0,0,1,140,21.22,14.64,14.64,0,0,1,138.06,17c-.24-1.5,1.49-3.21,1.9-5C140.38,13.78,142.13,15.48,141.9,17Z"/></g></g></svg>