<svg xmlns="http://www.w3.org/2000/svg" viewBox="0 0 116.43 116.43"><defs><style>.cls-1{fill:#fff;}.cls-2{fill:#d6a09a;}.cls-3{fill:#fbd9cb;}.cls-4{fill:#f4954e;}.cls-5{fill:#cf6828;}.cls-6{fill:#f7b719;}.cls-7{fill:#fcd535;}</style></defs><g id="Layer_2" data-name="Layer 2"><g id="Layer_11" data-name="Layer 11"><circle class="cls-1" cx="58.21" cy="58.21" r="58.21"/><path class="cls-2" d="M88.69,82.06l-1.21.73a36.72,36.72,0,0,1-38.6-.51,18,18,0,0,0-4.06-1.93L38,78.08,36.75,73A23.65,23.65,0,0,1,42,51.49l2-2.21a17,17,0,0,0,5-12,4.89,4.89,0,0,1,4.89-4.9h13a3,3,0,0,1,3,3v4a3,3,0,0,1-3,3,3,3,0,0,1-3,3h-1a3,3,0,0,1-3,3h-2a2,2,0,0,1-2-2v-3a6.77,6.77,0,0,0-2,4.79,14.79,14.79,0,0,0,.19,2.31,58.4,58.4,0,0,1,.81,9.69v3.07l1.17-.88a10.53,10.53,0,0,1,6.3-2.1h.08A10.12,10.12,0,0,1,67,61.27l1.83.92.23-.23a12.82,12.82,0,0,1,17.24-.78l2.4,2Z"/><path class="cls-3" d="M86.29,61.18A12.9,12.9,0,0,0,69.05,62l-.23.23L67,61.27a10.19,10.19,0,0,0-4.53-1.07h-.08a10.66,10.66,0,0,0-6.3,2.1l-1.17.88V60.11a58.4,58.4,0,0,0-.81-9.69,14.79,14.79,0,0,1-.19-2.31,6.77,6.77,0,0,1,2-4.79v3a2,2,0,0,0,2,2h2a3,3,0,0,0,3-3h1a3,3,0,0,0,2-.75l.24-.24a3,3,0,0,0,.78-2,3,3,0,0,0,3-3v-4a3,3,0,0,0-3-3H53.9a4.87,4.87,0,0,0-2,3.9,17,17,0,0,1-5,12l-2,2.21A23.67,23.67,0,0,0,39.73,72L41,77.09l6.79,2.27a18.4,18.4,0,0,1,4.06,1.92,36.64,36.64,0,0,0,29.66,4.36,36.62,36.62,0,0,0,6-2.85l1.21-.73V63.18Z"/><path class="cls-2" d="M59.88,43.32h-3a5,5,0,0,1-5-5h2a3,3,0,0,0,3,3h3Z"/><path class="cls-2" d="M44,71.13v-2a5,5,0,0,0,5-5,70.07,70.07,0,0,1,.71-10l.29-2,2,.29-.29,2a69.18,69.18,0,0,0-.7,9.75A7,7,0,0,1,44,71.13Z"/><path class="cls-2" d="M63.76,81.06a13.63,13.63,0,0,1-7.65-2.32l-2.73-1.82,1.1-1.65,2.73,1.82A11.9,11.9,0,0,0,67.5,78.47l4-1.33L72.12,79l-4,1.32A13.79,13.79,0,0,1,63.76,81.06Z"/><path class="cls-2" d="M84.52,80.05A14,14,0,0,1,76,74.71l1.58-1.2a12,12,0,0,0,7.26,4.57l.1,0Z"/><path class="cls-4" d="M82.73,57.22v-6h5L76.77,36.36,65.84,51.26h5v6"/><path class="cls-4" d="M45,89V76.1h5L39,61.2,28.09,76.1h5V89"/><path class="cls-5" d="M39,61.2V89h6V76.1h5Z"/><path class="cls-6" d="M31.07,43.32a3,3,0,0,1,3,3,3,3,0,0,1,3-3,3,3,0,0,1-3-3A3,3,0,0,1,31.07,43.32Z"/><path class="cls-7" d="M38,32.39a6.28,6.28,0,0,1,4,4,6.29,6.29,0,0,1,4-4,6.31,6.31,0,0,1-4-4A6.3,6.3,0,0,1,38,32.39Z"/><path class="cls-2" d="M53.76,66.71l3.39-5.09a10,10,0,0,0-1.06.68l-1.17.88V61.4L52.1,65.61Z"/><path class="cls-2" d="M62.09,47.29a3,3,0,0,0,.77-2h1V38.35a3,3,0,0,0-3-3v2a1,1,0,0,1,1,1v9.14A2.09,2.09,0,0,0,62.09,47.29Z"/><path class="cls-2" d="M64.85,35.37a1,1,0,0,1,1,1v8.17l.22-.22a3,3,0,0,0,.78-2,2.8,2.8,0,0,0,1-.18V36.36a3,3,0,0,0-3-3Z"/><path class="cls-5" d="M76.77,36.36V57.22h6v-6h5Z"/><path d="M87,81.93a35.74,35.74,0,0,1-37.56-.49A19,19,0,0,0,46,79.72V77.09h4a1,1,0,0,0,1-1,1,1,0,0,0-.19-.59L47,70.42a6.93,6.93,0,0,0,3.92-6.24,69.18,69.18,0,0,1,.7-9.75l.29-2-2-.29-.29,2a71.54,71.54,0,0,0-.71,10,5,5,0,0,1-3.14,4.6l-6-8.17a1,1,0,0,0-1.45-.15l-.15.15-.3.4a22.81,22.81,0,0,1,4.84-8.86L44.69,50A17.84,17.84,0,0,0,50,37.29a3.91,3.91,0,0,1,3.9-3.91h13a2,2,0,0,1,2,2v4a2,2,0,0,1-1,1.71V36.36a3,3,0,0,0-3-3v2a1,1,0,0,1,1,1v6a2,2,0,0,1-2,2v-6a3,3,0,0,0-3-3v2a1,1,0,0,1,1,1V45.3a2,2,0,0,1-2,2h-2a1,1,0,0,1-1-1v-3h3v-2h-3a3,3,0,0,1-3-3h-2a4.94,4.94,0,0,0,3,4.54v0a7.77,7.77,0,0,0-2,5.17,15.85,15.85,0,0,0,.2,2.48,57.33,57.33,0,0,1,.79,9.52v2.78L52.1,65.61l1.66,1.11,1.89-2.84,1-.78a9.6,9.6,0,0,1,5.78-1.9,9.2,9.2,0,0,1,4.08,1L68.3,63a7,7,0,0,1,3,4.82l.49,3.41,2-.28-.49-3.41a9,9,0,0,0-3-5.45A11.78,11.78,0,0,1,85.65,62l2.4,2,1.28-1.53-2.41-2A13.78,13.78,0,0,0,68.63,61l-1.19-.59a11.22,11.22,0,0,0-5-1.18,11.53,11.53,0,0,0-6.48,2V60.12a59.28,59.28,0,0,0-.82-9.86,14.06,14.06,0,0,1-.17-2.15A5.46,5.46,0,0,1,55,47a3,3,0,0,0,2.88,2.24h2a4,4,0,0,0,3.85-3h.13a4,4,0,0,0,3.87-3.08,4,4,0,0,0,3.08-3.88v-4a4,4,0,0,0-4-4h-13A5.89,5.89,0,0,0,48,37.29a15.93,15.93,0,0,1-4.71,11.33l-2,2.21a24.84,24.84,0,0,0-6.1,13.92L27.29,75.51a1,1,0,0,0,.22,1.39,1,1,0,0,0,.58.19h4V89h2V76.1a1,1,0,0,0-1-1h-3l9-12.22L48,75.1H45a1,1,0,0,0-1,1V89h2V81.86a16.13,16.13,0,0,1,2.36,1.25A37.71,37.71,0,0,0,88,83.63l1.21-.73-1-1.7Z"/><path d="M67.5,78.47a11.9,11.9,0,0,1-10.29-1.38l-2.74-1.82-1.1,1.65,2.73,1.82a13.79,13.79,0,0,0,12,1.61l4-1.32-.62-1.89Z"/><path d="M77.56,73.51,76,74.71a14,14,0,0,0,8.54,5.34l.4-2-.1,0a12,12,0,0,1-7.26-4.57Z"/><path d="M81.74,51.26v4h2v-3h4a1,1,0,0,0,1-1,1.06,1.06,0,0,0-.19-.59L77.57,35.77a1,1,0,0,0-1.45-.15l-.15.15L65,50.67a1,1,0,0,0,.21,1.39,1,1,0,0,0,.59.2h4v5h2v-6a1,1,0,0,0-1-1h-3l9-12.23,9,12.23h-3A1,1,0,0,0,81.74,51.26Z"/><path d="M30.08,43.32a1,1,0,0,0,1,1,2,2,0,0,1,2,2,1,1,0,0,0,2,0,2,2,0,0,1,2-2,1,1,0,0,0,0-2,2,2,0,0,1-2-2,1,1,0,1,0-2,0,2,2,0,0,1-2,2A1,1,0,0,0,30.08,43.32Zm4-.36a3,3,0,0,0,.35.36,2.89,2.89,0,0,0-.35.35,4,4,0,0,0-.36-.35A4.08,4.08,0,0,0,34.06,43Z"/><path d="M41.06,36.68a1,1,0,0,0,1.25.63,1,1,0,0,0,.64-.63,5.32,5.32,0,0,1,3.34-3.35,1,1,0,0,0,.64-1.25,1,1,0,0,0-.64-.64A5.33,5.33,0,0,1,43,28.1a1,1,0,0,0-1.89,0,5.34,5.34,0,0,1-3.35,3.35,1,1,0,0,0,0,1.88A5.32,5.32,0,0,1,41.06,36.68ZM42,30.6a7.42,7.42,0,0,0,1.79,1.79A7.42,7.42,0,0,0,42,34.18a7.25,7.25,0,0,0-1.79-1.79A7.25,7.25,0,0,0,42,30.6Z"/></g></g></svg>