<svg xmlns="http://www.w3.org/2000/svg" viewBox="0 0 116.43 116.43"><defs><style>.cls-1{fill:#fff;}.cls-2{fill:#f34a5c;}.cls-3{fill:#f4954e;}.cls-4,.cls-5{fill:#cf6828;}.cls-5{fill-rule:evenodd;}.cls-6{fill:#fbd9cb;}</style></defs><g id="Layer_2" data-name="Layer 2"><g id="Layer_11" data-name="Layer 11"><circle class="cls-1" cx="58.21" cy="58.21" r="58.21"/><path class="cls-2" d="M83.49,83.43l-7.73-1.7-2.39,7.56a.66.66,0,0,1-1.19.13l-9.55-16.6A23.69,23.69,0,0,0,74.73,66l9.46,16.44a.65.65,0,0,1-.7,1Z"/><path class="cls-3" d="M83.49,83.43l-7.14-1.57a.67.67,0,0,0-.77.44l-2.21,7a.66.66,0,0,1-1.19.13L64,75.2l-1.36-2.38A23.69,23.69,0,0,0,74.73,66l1.36,2.36,8.1,14.08a.65.65,0,0,1-.7,1Z"/><path class="cls-4" d="M83.49,83.43l-7.14-1.57a.67.67,0,0,0-.77.44l.77-2.38a.65.65,0,0,1,.77-.44l6.14,1.36.93,1.63a.65.65,0,0,1-.7,1Z"/><path class="cls-3" d="M54,72.62l-9.7,16.86a.66.66,0,0,1-1.19-.13l-2.22-7a.65.65,0,0,0-.76-.44l-7.14,1.57a.65.65,0,0,1-.71-1l9-15.68A23.84,23.84,0,0,0,54,72.62Z"/><path class="cls-4" d="M42.53,69.18l-8,14-1.55.34a.65.65,0,0,1-.71-1l7.68-13.35L42,65.56c.56.53,1.15,1,1.75,1.51Z"/><path class="cls-4" d="M45.19,87.83l-.94,1.65a.66.66,0,0,1-1.2-.13l-2.21-7a.65.65,0,0,0-.76-.44l2.44-.54a.66.66,0,0,1,.77.45Z"/><path class="cls-4" d="M41.48,66.45l6.38,2.88L54,72.62l-1.63,2.84A26.19,26.19,0,0,1,40,69.29l-.13-.11Z"/><path class="cls-4" d="M76.09,68.39,74.73,66,67.54,69.2l-4.91,3.62.55,1,1.36,2.36,7.64,13.28a.66.66,0,0,0,1.19-.13l.49-1.54-7.6-13.23a26.18,26.18,0,0,0,9.83-6.13Z"/><path class="cls-4" d="M82,49.51A23.84,23.84,0,0,1,63.26,72.82a23.39,23.39,0,0,1-5,.54,24.65,24.65,0,0,1-3.87-.31,23.75,23.75,0,0,1-11.93-5.72l-.52-.48A23.36,23.36,0,0,1,40.14,65a23,23,0,0,1-1.48-1.93A23.8,23.8,0,0,1,71.74,29.9a22.92,22.92,0,0,1,1.92,1.49A23.72,23.72,0,0,1,82,49.51Z"/><ellipse class="cls-3" cx="58.21" cy="49.51" rx="17.03" ry="17.08"/><path class="cls-4" d="M75.24,49.51a17,17,0,1,1-34.06,0,18.21,18.21,0,0,1,.13-2.1,17,17,0,0,0,33.8,0,16.22,16.22,0,0,1,.13,2.1Z"/><path class="cls-5" d="M58.21,32.43a17.08,17.08,0,1,0,17,17.08A17.06,17.06,0,0,0,58.21,32.43Zm0,32.19A15.11,15.11,0,1,1,73.28,49.51,15.1,15.1,0,0,1,58.21,64.62Z"/><path class="cls-6" d="M58.8,40.07l2.34,4.78a.67.67,0,0,0,.5.36l5.25.75a.66.66,0,0,1,.37,1.12l-3.82,3.71a.65.65,0,0,0-.18.58l.9,5.25a.65.65,0,0,1-.95.69l-4.69-2.48a.66.66,0,0,0-.61,0l-4.7,2.48a.65.65,0,0,1-1-.69l.91-5.25a.63.63,0,0,0-.19-.58l-3.81-3.71A.66.66,0,0,1,49.53,46l5.26-.75a.69.69,0,0,0,.5-.36l2.33-4.78a.66.66,0,0,1,1.18,0Z"/><path d="M74.7,53.92a1,1,0,0,0,1.16-.77,18.42,18.42,0,0,0,.37-3.64,18,18,0,1,0-2,8.28,1,1,0,1,0-1.75-.9,16.2,16.2,0,1,1,1.45-4.13,1,1,0,0,0,.77,1.16Z"/><path d="M69.14,45.85a1,1,0,0,0-.79-.67L62,44.26,59.1,38.43a1,1,0,0,0-1.77,0l-2.85,5.83-6.4.92a1,1,0,0,0-.55,1.68l4.64,4.52-1.1,6.39a1,1,0,0,0,1.42,1l5.72-3,5.72,3a1,1,0,0,0,1.43-1l-1.11-6.39,4.64-4.52a1,1,0,0,0,.25-1Zm-6.63,4.48a1,1,0,0,0-.28.87l.85,4.93-4.41-2.34a1,1,0,0,0-.92,0l-4.41,2.34.86-4.93a1,1,0,0,0-.29-.87l-3.57-3.49,4.93-.71a1,1,0,0,0,.74-.54l2.2-4.49,2.2,4.49a1,1,0,0,0,.74.54l4.94.71Z"/><path d="M85.78,83.26l-9.6-16.68a24.79,24.79,0,0,0-30-38.79,1,1,0,0,0,1,1.72A22.88,22.88,0,1,1,43.55,32a1,1,0,0,0-1.27-1.51,24.87,24.87,0,0,0-2,36.1l-2.72,4.72a1,1,0,0,0,1.7,1L41.72,68a24.64,24.64,0,0,0,10.53,5.6L43.77,88.34,41.6,81.5a1,1,0,0,0-1.15-.67l-7,1.54L37,76.29a1,1,0,1,0-1.7-1l-4.61,8a1,1,0,0,0,1.06,1.45L40,83l2.57,8.12a1,1,0,0,0,1.79.19L54.27,74a25.65,25.65,0,0,0,3.94.31,24.73,24.73,0,0,0,4-.32l6,10.35a1,1,0,0,0,.85.5,1,1,0,0,0,.49-.14,1,1,0,0,0,.36-1.34L64.21,73.6A24.68,24.68,0,0,0,74.73,68L83,82.31l-7-1.54a1,1,0,0,0-1.14.66l-2.17,6.85-.53-.91a1,1,0,1,0-1.7,1l1.64,2.84A1,1,0,0,0,73.86,91l2.57-8.12,8.29,1.82a1,1,0,0,0,1.06-1.45Z"/></g></g></svg>