<svg xmlns="http://www.w3.org/2000/svg" viewBox="0 0 116.43 116.43"><defs><style>.cls-1{fill:#fff;}.cls-2{fill:#f4954e;}.cls-3{fill:#cf6828;}.cls-4{fill:#fde4b9;}.cls-5{fill:#6f64b6;}.cls-6{fill:#594bab;}.cls-7{fill:#fab338;}.cls-8{fill:#eae6ea;}.cls-9{fill:#dad6da;}.cls-10{fill:#4f6a79;}.cls-11{fill:#f8f8f8;}.cls-12{fill:#445a66;}.cls-13{fill:#d0d0d0;}.cls-14{fill:#e82928;}.cls-15{fill:#c22323;}</style></defs><g id="Layer_2" data-name="Layer 2"><g id="Layer_11" data-name="Layer 11"><circle class="cls-1" cx="58.21" cy="58.21" r="58.21"/><path class="cls-2" d="M58.26,22.07A22.71,22.71,0,0,0,46.69,64.34a3.92,3.92,0,0,1,1.91,3.37v5.53a1.87,1.87,0,0,1,.71-.14H67.15a1.87,1.87,0,0,1,.71.14V67.71a4,4,0,0,1,2-3.39A22.71,22.71,0,0,0,58.26,22.07Z"/><path class="cls-3" d="M54.6,67.71a3.92,3.92,0,0,0-1.91-3.37,22.71,22.71,0,0,1,8.55-42.07A22.71,22.71,0,0,0,46.69,64.34a3.92,3.92,0,0,1,1.91,3.37v5.53a1.87,1.87,0,0,1,.71-.14H54.6Z"/><path class="cls-4" d="M74.07,40.33a15.78,15.78,0,0,0-8.3-10.07,1.09,1.09,0,0,1,1-2,18,18,0,0,1,9.46,11.47,1.09,1.09,0,0,1-2.11.56Z"/><path class="cls-5" d="M53.83,89.05v.8a4.4,4.4,0,0,0,8.8,0v-.8Z"/><path class="cls-6" d="M57.77,89.85v-.8H53.83v.8a4.41,4.41,0,0,0,4.4,4.4,4.37,4.37,0,0,0,2-.47,4.42,4.42,0,0,1-2.43-3.93Z"/><path class="cls-7" d="M30.23,45.29H26.49a1.09,1.09,0,0,1,0-2.18h3.74a1.09,1.09,0,0,1,0,2.18Z"/><path class="cls-7" d="M31.3,38.37l-3.5-1.32a1.09,1.09,0,0,1,.77-2l3.51,1.33a1.09,1.09,0,1,1-.78,2Z"/><path class="cls-7" d="M27.17,52.75a1.08,1.08,0,0,1,.63-1.4L31.3,50a1.09,1.09,0,0,1,.78,2l-3.51,1.33A1.08,1.08,0,0,1,27.17,52.75Z"/><path class="cls-7" d="M90,45.29H86.22a1.09,1.09,0,0,1,0-2.18H90a1.09,1.09,0,0,1,0,2.18Z"/><path class="cls-7" d="M83.75,37.74a1.09,1.09,0,0,1,.63-1.4L87.89,35a1.09,1.09,0,0,1,1.4.63,1.1,1.1,0,0,1-.63,1.41l-3.5,1.32A1.08,1.08,0,0,1,83.75,37.74Z"/><path class="cls-7" d="M87.89,53.39l-3.51-1.33a1.09,1.09,0,0,1,.78-2l3.5,1.33a1.09,1.09,0,0,1-.77,2Z"/><path class="cls-8" d="M65.7,83.7H50.76a1.89,1.89,0,0,0-1.89,1.89V87.2a1.89,1.89,0,0,0,1.89,1.89H65.7a1.89,1.89,0,0,0,1.89-1.89V85.59A1.89,1.89,0,0,0,65.7,83.7Z"/><path class="cls-9" d="M65.7,86.39H50.76A1.9,1.9,0,0,1,49,85a2,2,0,0,0-.08.55V87.2a1.89,1.89,0,0,0,1.89,1.89H65.7a1.89,1.89,0,0,0,1.89-1.89V85.59a2,2,0,0,0-.08-.55,1.9,1.9,0,0,1-1.81,1.35Z"/><path class="cls-8" d="M67.15,78.38H49.31a1.89,1.89,0,0,0-1.89,1.89v1.61a1.89,1.89,0,0,0,1.89,1.89H67.15A1.89,1.89,0,0,0,69,81.88V80.27A1.89,1.89,0,0,0,67.15,78.38Z"/><path class="cls-9" d="M67.15,81.08H49.31a1.89,1.89,0,0,1-1.81-1.35,1.91,1.91,0,0,0-.08.54v1.61a1.89,1.89,0,0,0,1.89,1.89H67.15A1.89,1.89,0,0,0,69,81.88V80.27a1.91,1.91,0,0,0-.08-.54A1.9,1.9,0,0,1,67.15,81.08Z"/><path class="cls-8" d="M67.15,73.06H49.31A1.89,1.89,0,0,0,47.42,75v1.61a1.89,1.89,0,0,0,1.89,1.89H67.15A1.89,1.89,0,0,0,69,76.56V75A1.89,1.89,0,0,0,67.15,73.06Z"/><path class="cls-9" d="M67.15,75.76H49.31a1.89,1.89,0,0,1-1.81-1.35,2,2,0,0,0-.08.54v1.61a1.89,1.89,0,0,0,1.89,1.89H67.15A1.89,1.89,0,0,0,69,76.56V75a2,2,0,0,0-.08-.54A1.9,1.9,0,0,1,67.15,75.76Z"/><path d="M66.69,28.29a1.09,1.09,0,1,0-1,1.95A15.81,15.81,0,0,1,74,40.32a1.09,1.09,0,1,0,2.1-.57A17.91,17.91,0,0,0,66.69,28.29Z"/><path d="M31.29,44.18a1.09,1.09,0,0,0-1.09-1.09H26.45a1.09,1.09,0,1,0,0,2.18H30.2A1.09,1.09,0,0,0,31.29,44.18Z"/><path d="M32,36.32,28.54,35a1.08,1.08,0,0,0-1.4.64,1.07,1.07,0,0,0,.63,1.4l3.5,1.33a1.09,1.09,0,1,0,.77-2Z"/><path d="M31.27,50l-3.5,1.33a1.09,1.09,0,1,0,.77,2L32,52a1.09,1.09,0,1,0-.77-2Z"/><path d="M89.94,43.09H86.19a1.09,1.09,0,1,0,0,2.18h3.75a1.09,1.09,0,1,0,0-2.18Z"/><path d="M85.12,38.36,88.63,37a1.09,1.09,0,0,0,.63-1.4A1.1,1.1,0,0,0,87.85,35l-3.5,1.33a1.09,1.09,0,0,0,.77,2Z"/><path d="M88.63,51.34,85.12,50a1.09,1.09,0,1,0-.77,2l3.5,1.33a1.09,1.09,0,1,0,.78-2Z"/><path d="M60.62,23.28a21.55,21.55,0,0,1,19,18.51,1.1,1.1,0,0,0,1.23.93,1.09,1.09,0,0,0,.93-1.23A23.8,23.8,0,0,0,60.86,21.11a1.09,1.09,0,0,0-.24,2.17Z"/><path d="M80.83,45.64h0a1.09,1.09,0,0,0-1.17,1A21.71,21.71,0,0,1,69.14,63.37a5.07,5.07,0,0,0-2.48,4.33V72H49.57V67.7a5,5,0,0,0-2.44-4.31A21.62,21.62,0,0,1,55.7,23.28a1.09,1.09,0,1,0-.25-2.17A23.81,23.81,0,0,0,46,65.27a2.82,2.82,0,0,1,1.37,2.43v4.92a3,3,0,0,0-1.14,2.32v1.61a2.92,2.92,0,0,0,.66,1.85,3,3,0,0,0-.66,1.86v1.6a3,3,0,0,0,1.66,2.65,2.89,2.89,0,0,0-.2,1.06v1.61a2.94,2.94,0,0,0,2.94,2.94h2a5.49,5.49,0,0,0,11,0h2a3,3,0,0,0,3-2.94V85.57a2.9,2.9,0,0,0-.21-1.06A3,3,0,0,0,70,81.86v-1.6a3,3,0,0,0-.66-1.86A2.92,2.92,0,0,0,70,76.55V74.94a3,3,0,0,0-1.14-2.32V67.7a2.88,2.88,0,0,1,1.41-2.46A23.82,23.82,0,0,0,81.83,46.82,1.1,1.1,0,0,0,80.83,45.64ZM58.12,93.14a3.32,3.32,0,0,1-3.3-3h6.59A3.31,3.31,0,0,1,58.12,93.14Zm8.23-6a.78.78,0,0,1-.77.77H50.65a.78.78,0,0,1-.77-.77V85.57a.77.77,0,0,1,.77-.76H65.58a.77.77,0,0,1,.77.76Zm1.45-5.31a.76.76,0,0,1-.77.76H49.2a.77.77,0,0,1-.77-.76V80.26a.77.77,0,0,1,.77-.77H67a.76.76,0,0,1,.77.77Zm0-5.32a.76.76,0,0,1-.77.76H49.2a.77.77,0,0,1-.77-.76V74.94a.77.77,0,0,1,.77-.76H67a.77.77,0,0,1,.77.76Z"/><path class="cls-10" d="M65.83,53.43H49.54a2.72,2.72,0,0,1-2.71-2.72V41.33a2.72,2.72,0,0,1,2.71-2.71H65.83a2.72,2.72,0,0,1,2.72,2.71v.25h.24a1.73,1.73,0,0,1,1.72,1.73v5.43a1.73,1.73,0,0,1-1.72,1.73h-.24v.24A2.72,2.72,0,0,1,65.83,53.43Z"/><path class="cls-11" d="M49.54,40.1a1.23,1.23,0,0,0-1.23,1.23v9.38A1.24,1.24,0,0,0,49.54,52H65.83a1.25,1.25,0,0,0,1.24-1.24v-1a.74.74,0,0,1,.74-.74h1a.25.25,0,0,0,.24-.25V43.31a.25.25,0,0,0-.24-.25h-1a.74.74,0,0,1-.74-.74v-1a1.24,1.24,0,0,0-1.24-1.23Z"/><path class="cls-12" d="M70.51,46H69v2.72a.25.25,0,0,1-.24.25h-1a.74.74,0,0,0-.74.74v1A1.25,1.25,0,0,1,65.83,52H49.54a1.24,1.24,0,0,1-1.23-1.24V46H46.83v4.69a2.72,2.72,0,0,0,2.71,2.72H65.83a2.72,2.72,0,0,0,2.72-2.72v-.24h.24a1.73,1.73,0,0,0,1.72-1.73Z"/><path class="cls-13" d="M69,46H53.74v3.71a.74.74,0,0,1-.74.74H50.53a.74.74,0,0,1-.74-.74V46H48.31v4.69A1.24,1.24,0,0,0,49.54,52H65.83a1.25,1.25,0,0,0,1.24-1.24v-1a.74.74,0,0,1,.74-.74h1a.25.25,0,0,0,.24-.25Z"/><path class="cls-14" d="M53,41.58H50.53a.74.74,0,0,0-.74.74v7.41a.74.74,0,0,0,.74.74H53a.74.74,0,0,0,.74-.74V42.32A.74.74,0,0,0,53,41.58Z"/><path class="cls-15" d="M51.76,41.58H50.53a.74.74,0,0,0-.74.74v7.41a.74.74,0,0,0,.74.74h1.23Z"/></g></g></svg>